<?xml version="1.0" encoding="iso-8859-1"?>
<!-- Generator: Adobe Illustrator 19.0.0, SVG Export Plug-In . SVG Version: 6.00 Build 0)  -->
<svg version="1.1" id="Capa_1" xmlns="http://www.w3.org/2000/svg" xmlns:xlink="http://www.w3.org/1999/xlink" x="0px" y="0px"
	 viewBox="0 0 512.896 512.896" style="enable-background:new 0 0 512.896 512.896;" xml:space="preserve">
<g>
	<rect x="183.275" y="292.773" style="fill:#F8B64C;" width="145.611" height="131.36"/>
	<path style="fill:#F8B64C;" d="M178.912,197.36c1.621,18.443-7.328,34.272-19.957,35.371
		c-12.651,1.109-24.213-12.939-25.813-31.371c-1.611-18.421,7.328-34.251,19.979-35.349
		C165.76,164.901,177.312,178.939,178.912,197.36"/>
	<path style="fill:#F8B64C;" d="M379.136,201.381c-1.6,18.421-13.152,32.459-25.792,31.349
		c-12.661-1.109-21.589-16.939-19.979-35.349c1.6-18.443,13.163-32.48,25.813-31.371
		C371.819,167.109,380.768,182.949,379.136,201.381"/>
</g>
<path style="fill:#FFD15C;" d="M362.475,149.157v34.901c-0.107,7.381-0.523,14.773-1.44,22.059
	c-1.547,12.128-4.117,24.021-7.712,35.52c-8.704,27.808-23.392,53.483-43.211,75.136l-10.165,11.083
	c-9.237,10.165-22.379,15.904-36.128,15.904h-15.392c-13.643,0-26.795-5.856-36.032-15.904l-10.048-11.083
	c-14.08-15.307-25.568-32.736-34.08-51.328c-8.629-18.688-14.379-38.709-16.832-59.339c-0.939-7.296-1.44-14.677-1.44-22.059
	c-0.107-0.832-0.107-1.547-0.107-2.368v-31.904c0-10.059,1.44-19.915,4.107-29.141c12.629-44.459,53.568-77.099,102.229-77.099
	c48.565,0,89.515,32.64,102.144,77.099C361.035,129.659,362.475,139.301,362.475,149.157"/>
<g>
	<path style="fill:#ACB3BA;" d="M350.944,292.187c-0.117,0.117-0.224,0.117-0.224,0.117v-0.235
		C350.827,292.069,350.944,292.187,350.944,292.187"/>
	<path style="fill:#ACB3BA;" d="M351.392,292.069v0.224c0,0-0.107,0-0.224-0.117C351.168,292.187,351.285,292.069,351.392,292.069"
		/>
</g>
<path style="fill:#84DBFF;" d="M512.896,512.4H0c1.163-8.107,2.773-63.275,4.683-74.997c0.085-0.459,0.171-0.917,0.235-1.376
	c10.24-57.717,58.539-101.163,116.757-108l61.824-8.267l0.021,0.043c29.835,60.235,115.776,60.224,145.568-0.043l61.92,8.256
	c58.229,6.795,106.56,50.229,116.832,107.947c0.096,0.48,0.171,0.96,0.245,1.44C510.016,449.125,511.723,504.293,512.896,512.4"/>
<path style="fill:#F2F2F2;" d="M438.048,440.891l-5.013,71.52H79.328l-5.024-71.52c-0.853-6.304,4.171-11.947,10.56-11.947h342.613
	C433.888,428.944,438.901,434.587,438.048,440.891"/>
<g>
	<path style="fill:#CDD6E0;" d="M270.123,472.773c-7.541,0-13.664,6.293-13.664,14.005
		C263.936,486.779,270.048,480.539,270.123,472.773"/>
	<path style="fill:#CDD6E0;" d="M272.181,506.789c0,2.027,0.309,3.947,1.163,5.653h-41.269c-1.28-12.587,4.373-23.584,12.896-24.213
		c2.037-0.224,4.064,0.107,5.877,1.067c3.947,1.92,8.213,1.92,12.053,0c1.931-0.96,3.947-1.28,5.973-1.067
		c3.957,0.213,7.36,2.976,9.707,7.029C274.848,497.712,272.288,501.989,272.181,506.789"/>
</g>
<path style="fill:#334A5E;" d="M312.331,265.317c0,0-5.067,16.864-31.755,14.571c0,0-19.787-0.917-24.395-9.216
	c-4.619,8.299-24.395,9.216-24.395,9.216c-26.709,2.293-31.776-14.571-31.776-14.571c19.787,5.547,32.683-5.067,32.683-5.067
	c10.816-10.816,23.477,0,23.477,0s12.651-10.816,23.456,0C279.637,260.251,292.544,270.864,312.331,265.317"/>
<path style="fill:#40596B;" d="M376.032,62.544c0,0-21.173-26.101-55.051-36.693c0,0,2.827-4.235,9.877-4.235
	c0,0-22.571-9.163-47.285-9.163c0,0,0-2.837,7.061-7.776c0,0-35.296-6.347-67.776,14.837c0,0-4.224-7.776-3.52-19.061
	c0,0-7.061,3.52-6.357,23.296c0,0-6.357-4.939-9.877-4.224c0,0,4.224,3.52,3.52,7.765c0,0-67.04,0-81.163,80.459v57.589
	c0,10.144,8.213,18.368,18.357,18.368c0,0,5.643,19.051,14.816,21.888v-49.579c0-20.363,13.12-38.421,32.48-44.725
	c0,0,7.061,14.112,15.52,18.357c0,0-7.755-7.061-4.939-21.888c0,0,16.939,51.52,94.581,36.693c0,0-55.765-6.357-74.827-36.693
	c0,0,64.224,48.693,124.928,22.581c4.672,11.179,7.061,23.179,7.061,35.307v47.563h0.011c8.469,0,9.792-15.456,10.283-20.789
	c0.832-8.981,3.029-10.379,8.757-14.357c0,0,9.877,8.48,12.693-17.643C385.205,160.379,402.848,93.605,376.032,62.544"/>
<path style="fill:#F2F2F2;" d="M310.955,158.544h-25.771c-10.389,0-19.019,7.147-21.472,16.757c-4.939-1.291-10.133-1.291-15.072,0
	c-2.443-9.611-11.083-16.757-21.461-16.757h-25.781c-19.392,0-35.104,15.733-35.104,35.115s15.712,35.104,35.104,35.104
	c25.333,0,45.856-19.68,47.648-44.544c4.576-1.696,9.707-1.696,14.261,0c1.792,24.864,22.315,44.544,47.648,44.544
	c19.392,0,35.104-15.723,35.104-35.104S330.347,158.544,310.955,158.544 M201.397,218.096c-13.493,0-24.448-10.944-24.448-24.437
	c0-13.483,10.955-24.448,24.448-24.448h25.781c6.368,0,11.552,5.173,11.552,11.552C238.731,201.36,221.984,218.096,201.397,218.096
	 M310.955,218.096c-20.587,0-37.333-16.736-37.333-37.333c0-6.379,5.184-11.552,11.563-11.552h25.771
	c13.483,0,24.459,10.965,24.459,24.448C335.413,207.152,324.437,218.096,310.955,218.096"/>
<g style="opacity:0.1;">
	<g>
		<path style="fill:#40596B;" d="M310.123,316.784l-10.165,11.083c-9.227,10.155-22.379,15.904-36.128,15.904h-15.403
			c-9.781,0-19.243-3.104-27.253-8.523l40.875,29.333c26.869-1.856,52.928-16.608,66.891-44.544v-27.275h-0.352
			C322.987,301.147,316.971,309.285,310.123,316.784"/>
	</g>
</g>
<g>
</g>
<g>
</g>
<g>
</g>
<g>
</g>
<g>
</g>
<g>
</g>
<g>
</g>
<g>
</g>
<g>
</g>
<g>
</g>
<g>
</g>
<g>
</g>
<g>
</g>
<g>
</g>
<g>
</g>
</svg>
